STARTFONT 2.1
COMMENT +
COMMENT  Copyright 1984-1989, 1994 Adobe Systems Incorporated.
COMMENT  Copyright 1988, 1994 Digital Equipment Corporation.
COMMENT  Copyright 1996 BIZNET Poland, Inc.
COMMENT
COMMENT  Permission to use, copy, modify, distribute and sell this software
COMMENT  and its documentation for any purpose and without fee is hereby
COMMENT  granted, provided that the above copyright notices appear in all
COMMENT  copies and that both those copyright notices and this permission
COMMENT  notice appear in supporting documentation, and that the names of
COMMENT  Adobe Systems and Digital Equipment Corporation not be used in
COMMENT  advertising or publicity pertaining to distribution of the software
COMMENT  without specific, written prior permission.  Adobe Systems and
COMMENT  Digital Equipment Corporation make no representations about the
COMMENT  suitability of this software for any purpose.  It is provided "as
COMMENT  is" without express or implied warranty.
COMMENT -
FONT -BIZNET-Kathimerini-Medium-R-Normal--17-120-100-100-P-84-ISO8859-2
SIZE 12 100 100
FONTBOUNDINGBOX 15 16 -1 -4
STARTPROPERTIES 25
FOUNDRY "BIZNET"
FAMILY_NAME "BIZNET Kathimerini"
WEIGHT_NAME "Medium"
SLANT "R"
SETWIDTH_NAME "Normal"
ADD_STYLE_NAME ""
PIXEL_SIZE 17
POINT_SIZE 120
RESOLUTION_X 100
RESOLUTION_Y 100
SPACING "P"
AVERAGE_WIDTH 84
CHARSET_REGISTRY "ISO8859"
CHARSET_ENCODING "2"
CAP_HEIGHT 11
X_HEIGHT 8
FONT_ASCENT 13
FONT_DESCENT 4
FACE_NAME "BIZNET Kathimerini Roman"
DEFAULT_CHAR 32
RELATIVE_SETWIDTH 50
RELATIVE_WEIGHT 50
CHARSET_COLLECTIONS "ASCII ISO8859-2"
COPYRIGHT "Copyright (c) 1984, 1987 Adobe Systems Incorporated. All Rights Reserved. Copyright (c) 1988, 1991 Digital Equipment Corporation. All Rights Reserved. Copyright (c) 1996 BIZNET Poland, Inc. All Rights Reserved."
NOTICE "The name "BIZNET" is a registered trademark of BIZNET Poland, Inc."
ENDPROPERTIES
CHARS 190
STARTCHAR space
ENCODING 32
SWIDTH 250 0
DWIDTH 4 0
BBX 1 1 0 0
BITMAP
00
ENDCHAR
STARTCHAR exclam
ENCODING 33
SWIDTH 333 0
DWIDTH 5 0
BBX 1 11 2 0
BITMAP
80
80
80
80
80
80
80
00
00
80
80
ENDCHAR
STARTCHAR quotedbl
ENCODING 34
SWIDTH 408 0
DWIDTH 7 0
BBX 4 3 1 8
BITMAP
90
90
90
ENDCHAR
STARTCHAR numbersign
ENCODING 35
SWIDTH 500 0
DWIDTH 8 0
BBX 8 11 0 0
BITMAP
12
12
12
7F
24
24
FE
48
48
48
48
ENDCHAR
STARTCHAR dollar
ENCODING 36
SWIDTH 500 0
DWIDTH 8 0
BBX 7 13 0 -1
BITMAP
10
7C
92
92
90
50
38
14
12
92
92
7C
10
ENDCHAR
STARTCHAR percent
ENCODING 37
SWIDTH 833 0
DWIDTH 14 0
BBX 11 11 1 0
BITMAP
3900
4F00
8B00
8A00
9600
64E0
0D20
0A20
1A20
1240
1180
ENDCHAR
STARTCHAR ampersand
ENCODING 38
SWIDTH 778 0
DWIDTH 13 0
BBX 12 11 0 0
BITMAP
0C00
1200
1200
1200
0CE0
3840
4480
8300
8210
4520
38C0
ENDCHAR
STARTCHAR quoteright
ENCODING 39
SWIDTH 333 0
DWIDTH 5 0
BBX 2 3 1 8
BITMAP
40
40
80
ENDCHAR
STARTCHAR parenleft
ENCODING 40
SWIDTH 333 0
DWIDTH 5 0
BBX 4 14 0 -3
BITMAP
10
20
40
40
80
80
80
80
80
80
40
40
20
10
ENDCHAR
STARTCHAR parenright
ENCODING 41
SWIDTH 333 0
DWIDTH 5 0
BBX 4 14 -1 -3
BITMAP
80
40
20
20
10
10
10
10
10
10
20
20
40
80
ENDCHAR
STARTCHAR asterisk
ENCODING 42
SWIDTH 500 0
DWIDTH 8 0
BBX 5 6 1 5
BITMAP
20
A8
70
70
A8
20
ENDCHAR
STARTCHAR plus
ENCODING 43
SWIDTH 564 0
DWIDTH 9 0
BBX 7 7 1 1
BITMAP
10
10
10
FE
10
10
10
ENDCHAR
STARTCHAR comma
ENCODING 44
SWIDTH 250 0
DWIDTH 4 0
BBX 2 3 1 -1
BITMAP
40
40
80
ENDCHAR
STARTCHAR minus
ENCODING 45
SWIDTH 564 0
DWIDTH 9 0
BBX 7 1 0 4
BITMAP
FE
ENDCHAR
STARTCHAR period
ENCODING 46
SWIDTH 250 0
DWIDTH 4 0
BBX 1 2 1 0
BITMAP
80
80
ENDCHAR
STARTCHAR slash
ENCODING 47
SWIDTH 278 0
DWIDTH 5 0
BBX 5 13 0 -2
BITMAP
08
08
08
10
10
20
20
20
40
40
40
80
80
ENDCHAR
STARTCHAR zero
ENCODING 48
SWIDTH 500 0
DWIDTH 8 0
BBX 7 11 0 0
BITMAP
38
44
44
82
82
82
82
82
44
44
38
ENDCHAR
STARTCHAR one
ENCODING 49
SWIDTH 500 0
DWIDTH 8 0
BBX 4 11 1 0
BITMAP
20
60
A0
20
20
20
20
20
20
20
70
ENDCHAR
STARTCHAR two
ENCODING 50
SWIDTH 500 0
DWIDTH 8 0
BBX 7 11 0 0
BITMAP
38
44
82
02
02
04
08
10
20
42
FC
ENDCHAR
STARTCHAR three
ENCODING 51
SWIDTH 500 0
DWIDTH 8 0
BBX 7 11 0 0
BITMAP
38
44
84
08
10
38
04
02
02
C4
78
ENDCHAR
STARTCHAR four
ENCODING 52
SWIDTH 500 0
DWIDTH 8 0
BBX 8 11 -1 0
BITMAP
02
06
0A
0A
12
22
22
42
FF
02
02
ENDCHAR
STARTCHAR five
ENCODING 53
SWIDTH 500 0
DWIDTH 8 0
BBX 7 11 0 0
BITMAP
3E
20
20
40
78
04
02
02
02
8C
70
ENDCHAR
STARTCHAR six
ENCODING 54
SWIDTH 500 0
DWIDTH 8 0
BBX 7 11 0 0
BITMAP
0E
30
40
40
98
E4
82
82
82
44
38
ENDCHAR
STARTCHAR seven
ENCODING 55
SWIDTH 500 0
DWIDTH 8 0
BBX 7 11 0 0
BITMAP
FE
82
84
04
08
08
10
10
10
20
20
ENDCHAR
STARTCHAR eight
ENCODING 56
SWIDTH 500 0
DWIDTH 8 0
BBX 6 11 0 0
BITMAP
30
48
84
84
48
30
48
84
84
48
30
ENDCHAR
STARTCHAR nine
ENCODING 57
SWIDTH 500 0
DWIDTH 8 0
BBX 7 11 0 0
BITMAP
38
44
82
82
82
46
3A
04
04
18
E0
ENDCHAR
STARTCHAR colon
ENCODING 58
SWIDTH 278 0
DWIDTH 4 0
BBX 1 8 1 0
BITMAP
80
80
00
00
00
00
80
80
ENDCHAR
STARTCHAR semicolon
ENCODING 59
SWIDTH 278 0
DWIDTH 4 0
BBX 2 9 0 -1
BITMAP
40
40
00
00
00
00
40
40
80
ENDCHAR
STARTCHAR less
ENCODING 60
SWIDTH 564 0
DWIDTH 9 0
BBX 8 9 0 0
BITMAP
03
0C
10
60
80
60
10
0C
03
ENDCHAR
STARTCHAR equal
ENCODING 61
SWIDTH 564 0
DWIDTH 9 0
BBX 7 4 0 2
BITMAP
FE
00
00
FE
ENDCHAR
STARTCHAR greater
ENCODING 62
SWIDTH 564 0
DWIDTH 9 0
BBX 8 9 1 0
BITMAP
C0
30
08
06
01
06
08
30
C0
ENDCHAR
STARTCHAR question
ENCODING 63
SWIDTH 444 0
DWIDTH 7 0
BBX 5 11 1 0
BITMAP
70
88
88
08
10
20
20
00
00
20
20
ENDCHAR
STARTCHAR at
ENCODING 64
SWIDTH 921 0
DWIDTH 15 0
BBX 14 14 0 -3
BITMAP
07C0
1830
2008
41A8
4664
8444
8844
8844
88C8
8948
4630
2000
1830
07C0
ENDCHAR
STARTCHAR A
ENCODING 65
SWIDTH 722 0
DWIDTH 12 0
BBX 12 11 0 0
BITMAP
0400
0600
0A00
0B00
1100
1180
2080
3F80
40C0
4040
E0F0
ENDCHAR
STARTCHAR B
ENCODING 66
SWIDTH 667 0
DWIDTH 11 0
BBX 8 11 1 0
BITMAP
FC
46
42
42
44
7C
46
41
41
43
FE
ENDCHAR
STARTCHAR C
ENCODING 67
SWIDTH 667 0
DWIDTH 11 0
BBX 10 11 0 0
BITMAP
1F40
60C0
4040
8040
8000
8000
8000
8000
4040
6180
1E00
ENDCHAR
STARTCHAR D
ENCODING 68
SWIDTH 722 0
DWIDTH 12 0
BBX 10 11 0 0
BITMAP
FC00
4300
4080
4040
4040
4040
4040
4040
4080
4300
FC00
ENDCHAR
STARTCHAR E
ENCODING 69
SWIDTH 611 0
DWIDTH 10 0
BBX 9 11 0 0
BITMAP
FF00
4100
4000
4000
4200
7E00
4200
4000
4000
4080
FF00
ENDCHAR
STARTCHAR F
ENCODING 70
SWIDTH 556 0
DWIDTH 9 0
BBX 8 11 0 0
BITMAP
FF
41
40
40
42
7E
42
40
40
40
E0
ENDCHAR
STARTCHAR G
ENCODING 71
SWIDTH 722 0
DWIDTH 12 0
BBX 11 11 0 0
BITMAP
0F40
30C0
4040
8000
8000
81E0
8040
8040
4040
30C0
0F00
ENDCHAR
STARTCHAR H
ENCODING 72
SWIDTH 722 0
DWIDTH 12 0
BBX 10 11 0 0
BITMAP
E1C0
4080
4080
4080
4080
7F80
4080
4080
4080
4080
E1C0
ENDCHAR
STARTCHAR I
ENCODING 73
SWIDTH 333 0
DWIDTH 5 0
BBX 3 11 0 0
BITMAP
E0
40
40
40
40
40
40
40
40
40
E0
ENDCHAR
STARTCHAR J
ENCODING 74
SWIDTH 389 0
DWIDTH 6 0
BBX 5 11 0 0
BITMAP
38
10
10
10
10
10
10
10
90
90
60
ENDCHAR
STARTCHAR K
ENCODING 75
SWIDTH 722 0
DWIDTH 12 0
BBX 10 11 1 0
BITMAP
F3C0
4100
4200
4400
4800
7000
4800
4400
4200
4100
F3C0
ENDCHAR
STARTCHAR L
ENCODING 76
SWIDTH 611 0
DWIDTH 10 0
BBX 8 11 0 0
BITMAP
E0
40
40
40
40
40
40
40
40
41
FE
ENDCHAR
STARTCHAR M
ENCODING 77
SWIDTH 889 0
DWIDTH 15 0
BBX 13 11 0 0
BITMAP
E038
6030
5050
5050
4890
4890
4890
4510
4510
4210
E238
ENDCHAR
STARTCHAR N
ENCODING 78
SWIDTH 722 0
DWIDTH 12 0
BBX 10 11 0 0
BITMAP
E1C0
6080
5080
5080
4880
4880
4480
4280
4280
4180
F080
ENDCHAR
STARTCHAR O
ENCODING 79
SWIDTH 722 0
DWIDTH 12 0
BBX 9 11 1 0
BITMAP
1C00
6300
4100
8080
8080
8080
8080
8080
4100
6300
1C00
ENDCHAR
STARTCHAR P
ENCODING 80
SWIDTH 556 0
DWIDTH 9 0
BBX 8 11 0 0
BITMAP
FC
42
41
41
42
7C
40
40
40
40
E0
ENDCHAR
STARTCHAR Q
ENCODING 81
SWIDTH 722 0
DWIDTH 12 0
BBX 10 14 1 -3
BITMAP
1C00
6300
4100
8080
8080
8080
8080
8080
4100
6300
3C00
0C00
0600
01C0
ENDCHAR
STARTCHAR R
ENCODING 82
SWIDTH 667 0
DWIDTH 11 0
BBX 10 11 0 0
BITMAP
FC00
4200
4100
4100
4200
7C00
4800
4400
4200
4100
E1C0
ENDCHAR
STARTCHAR S
ENCODING 83
SWIDTH 556 0
DWIDTH 9 0
BBX 8 11 0 0
BITMAP
3A
46
82
80
60
1C
02
01
81
C2
BC
ENDCHAR
STARTCHAR T
ENCODING 84
SWIDTH 611 0
DWIDTH 10 0
BBX 9 11 0 0
BITMAP
FF80
8880
8880
0800
0800
0800
0800
0800
0800
0800
1C00
ENDCHAR
STARTCHAR U
ENCODING 85
SWIDTH 722 0
DWIDTH 12 0
BBX 10 11 0 0
BITMAP
E1C0
4080
4080
4080
4080
4080
4080
4080
4080
2100
1E00
ENDCHAR
STARTCHAR V
ENCODING 86
SWIDTH 722 0
DWIDTH 12 0
BBX 11 11 0 0
BITMAP
E0E0
4040
2080
2080
1100
1100
1100
0A00
0A00
0400
0400
ENDCHAR
STARTCHAR W
ENCODING 87
SWIDTH 944 0
DWIDTH 16 0
BBX 15 11 0 0
BITMAP
E70E
4204
2108
2108
1188
1290
1290
0A50
0A50
0420
0420
ENDCHAR
STARTCHAR X
ENCODING 88
SWIDTH 722 0
DWIDTH 12 0
BBX 11 11 0 0
BITMAP
E0E0
4040
2080
1100
0A00
0400
0A00
1100
2080
4040
E0E0
ENDCHAR
STARTCHAR Y
ENCODING 89
SWIDTH 722 0
DWIDTH 12 0
BBX 11 11 0 0
BITMAP
E0E0
4040
2080
1100
1100
0A00
0400
0400
0400
0400
0E00
ENDCHAR
STARTCHAR Z
ENCODING 90
SWIDTH 611 0
DWIDTH 10 0
BBX 9 11 0 0
BITMAP
FF80
8100
8200
0400
0400
0800
1000
2000
2000
4080
FF00
ENDCHAR
STARTCHAR bracketleft
ENCODING 91
SWIDTH 333 0
DWIDTH 5 0
BBX 3 14 1 -3
BITMAP
E0
80
80
80
80
80
80
80
80
80
80
80
80
E0
ENDCHAR
STARTCHAR backslash
ENCODING 92
SWIDTH 278 0
DWIDTH 5 0
BBX 6 11 -1 0
BITMAP
80
40
40
20
20
10
10
08
08
04
04
ENDCHAR
STARTCHAR bracketright
ENCODING 93
SWIDTH 333 0
DWIDTH 5 0
BBX 3 14 0 -3
BITMAP
E0
20
20
20
20
20
20
20
20
20
20
20
20
E0
ENDCHAR
STARTCHAR asciicircum
ENCODING 94
SWIDTH 469 0
DWIDTH 8 0
BBX 7 7 0 4
BITMAP
10
28
28
44
44
82
82
ENDCHAR
STARTCHAR underscore
ENCODING 95
SWIDTH 500 0
DWIDTH 8 0
BBX 8 1 0 -2
BITMAP
FF
ENDCHAR
STARTCHAR quoteleft
ENCODING 96
SWIDTH 333 0
DWIDTH 5 0
BBX 2 3 1 8
BITMAP
40
80
80
ENDCHAR
STARTCHAR a
ENCODING 97
SWIDTH 444 0
DWIDTH 7 0
BBX 7 8 1 0
BITMAP
70
88
88
38
C8
88
9A
6C
ENDCHAR
STARTCHAR b
ENCODING 98
SWIDTH 500 0
DWIDTH 8 0
BBX 7 11 0 0
BITMAP
40
C0
40
5C
64
42
42
42
42
64
38
ENDCHAR
STARTCHAR c
ENCODING 99
SWIDTH 444 0
DWIDTH 7 0
BBX 6 8 0 0
BITMAP
38
44
84
80
80
80
44
38
ENDCHAR
STARTCHAR d
ENCODING 100
SWIDTH 500 0
DWIDTH 8 0
BBX 7 11 0 0
BITMAP
04
0C
04
34
4C
84
84
84
84
4E
34
ENDCHAR
STARTCHAR e
ENCODING 101
SWIDTH 444 0
DWIDTH 7 0
BBX 6 8 0 0
BITMAP
38
44
84
FC
80
80
44
38
ENDCHAR
STARTCHAR f
ENCODING 102
SWIDTH 333 0
DWIDTH 6 0
BBX 5 11 1 0
BITMAP
30
48
40
40
F0
40
40
40
40
40
F0
ENDCHAR
STARTCHAR g
ENCODING 103
SWIDTH 500 0
DWIDTH 8 0
BBX 7 12 0 -4
BITMAP
36
4C
84
84
48
70
80
7C
82
82
C4
78
ENDCHAR
STARTCHAR h
ENCODING 104
SWIDTH 500 0
DWIDTH 8 0
BBX 8 11 0 0
BITMAP
40
C0
40
5C
66
42
42
42
42
42
E7
ENDCHAR
STARTCHAR i
ENCODING 105
SWIDTH 278 0
DWIDTH 5 0
BBX 3 11 1 0
BITMAP
40
40
00
40
C0
40
40
40
40
40
E0
ENDCHAR
STARTCHAR j
ENCODING 106
SWIDTH 278 0
DWIDTH 4 0
BBX 3 15 0 -4
BITMAP
20
20
00
20
60
20
20
20
20
20
20
20
20
A0
C0
ENDCHAR
STARTCHAR k
ENCODING 107
SWIDTH 500 0
DWIDTH 8 0
BBX 7 11 1 0
BITMAP
40
C0
40
5C
48
50
60
50
48
44
EE
ENDCHAR
STARTCHAR l
ENCODING 108
SWIDTH 278 0
DWIDTH 5 0
BBX 3 11 1 0
BITMAP
40
C0
40
40
40
40
40
40
40
40
E0
ENDCHAR
STARTCHAR m
ENCODING 109
SWIDTH 778 0
DWIDTH 13 0
BBX 11 8 1 0
BITMAP
5980
E640
4440
4440
4440
4440
4440
EEE0
ENDCHAR
STARTCHAR n
ENCODING 110
SWIDTH 500 0
DWIDTH 8 0
BBX 8 8 0 0
BITMAP
5C
E6
42
42
42
42
42
E7
ENDCHAR
STARTCHAR o
ENCODING 111
SWIDTH 500 0
DWIDTH 8 0
BBX 7 8 0 0
BITMAP
38
44
82
82
82
82
44
38
ENDCHAR
STARTCHAR p
ENCODING 112
SWIDTH 500 0
DWIDTH 8 0
BBX 7 12 0 -4
BITMAP
5C
E6
42
42
42
42
62
5C
40
40
40
E0
ENDCHAR
STARTCHAR q
ENCODING 113
SWIDTH 500 0
DWIDTH 8 0
BBX 7 12 1 -4
BITMAP
74
CC
84
84
84
84
CC
74
04
04
04
0E
ENDCHAR
STARTCHAR r
ENCODING 114
SWIDTH 333 0
DWIDTH 6 0
BBX 5 8 0 0
BITMAP
58
E8
40
40
40
40
40
E0
ENDCHAR
STARTCHAR s
ENCODING 115
SWIDTH 389 0
DWIDTH 6 0
BBX 5 8 0 0
BITMAP
78
88
80
70
08
88
C8
B0
ENDCHAR
STARTCHAR t
ENCODING 116
SWIDTH 278 0
DWIDTH 5 0
BBX 4 10 0 0
BITMAP
40
40
F0
40
40
40
40
40
50
20
ENDCHAR
STARTCHAR u
ENCODING 117
SWIDTH 500 0
DWIDTH 8 0
BBX 8 8 0 0
BITMAP
C6
42
42
42
42
42
47
3A
ENDCHAR
STARTCHAR v
ENCODING 118
SWIDTH 500 0
DWIDTH 8 0
BBX 8 8 0 0
BITMAP
E7
42
42
24
24
14
18
08
ENDCHAR
STARTCHAR w
ENCODING 119
SWIDTH 722 0
DWIDTH 12 0
BBX 12 8 0 0
BITMAP
EE70
4420
4420
2240
2240
1540
0880
0880
ENDCHAR
STARTCHAR x
ENCODING 120
SWIDTH 500 0
DWIDTH 8 0
BBX 7 8 0 0
BITMAP
EE
44
28
10
28
28
44
EE
ENDCHAR
STARTCHAR y
ENCODING 121
SWIDTH 500 0
DWIDTH 8 0
BBX 8 12 0 -4
BITMAP
F7
42
42
24
24
14
08
08
10
10
A0
C0
ENDCHAR
STARTCHAR z
ENCODING 122
SWIDTH 444 0
DWIDTH 7 0
BBX 6 8 0 0
BITMAP
FC
84
08
10
20
40
84
FC
ENDCHAR
STARTCHAR braceleft
ENCODING 123
SWIDTH 480 0
DWIDTH 8 0
BBX 4 14 2 -3
BITMAP
30
40
40
40
40
40
80
40
40
40
40
40
40
30
ENDCHAR
STARTCHAR bar
ENCODING 124
SWIDTH 200 0
DWIDTH 3 0
BBX 1 11 0 0
BITMAP
80
80
80
80
80
80
80
80
80
80
80
ENDCHAR
STARTCHAR braceright
ENCODING 125
SWIDTH 480 0
DWIDTH 8 0
BBX 4 14 0 -3
BITMAP
C0
20
20
20
20
20
10
20
20
20
20
20
20
C0
ENDCHAR
STARTCHAR asciitilde
ENCODING 126
SWIDTH 541 0
DWIDTH 9 0
BBX 8 3 0 3
BITMAP
71
99
8E
ENDCHAR
STARTCHAR Aogonek
ENCODING 161
SWIDTH 722 0
DWIDTH 12 0
BBX 12 14 0 -3
BITMAP
0400
0600
0A00
0B00
1100
1180
2080
3F80
40C0
4040
E0F0
0020
0040
0070
ENDCHAR
STARTCHAR breve
ENCODING 162
SWIDTH 531 0
DWIDTH 9 0
BBX 5 3 2 8
BITMAP
88
88
70
ENDCHAR
STARTCHAR Lslash
ENCODING 163
SWIDTH 611 0
DWIDTH 10 0
BBX 9 11 0 0
BITMAP
E000
4000
4000
5000
6000
C000
4000
4000
4000
4080
FF00
ENDCHAR
STARTCHAR currency
ENCODING 164
SWIDTH 500 0
DWIDTH 8 0
BBX 8 9 0 1
BITMAP
99
66
42
81
81
81
42
66
99
ENDCHAR
STARTCHAR Lcaron
ENCODING 165
SWIDTH 611 0
DWIDTH 10 0
BBX 8 11 0 0
BITMAP
E4
44
48
40
40
40
40
40
40
41
FE
ENDCHAR
STARTCHAR Sacute
ENCODING 166
SWIDTH 556 0
DWIDTH 9 0
BBX 8 15 0 0
BITMAP
04
08
10
00
3A
46
82
80
60
1C
02
01
81
C2
BC
ENDCHAR
STARTCHAR section
ENCODING 167
SWIDTH 500 0
DWIDTH 8 0
BBX 7 14 0 -3
BITMAP
38
44
4C
20
50
88
84
42
22
14
08
64
44
38
ENDCHAR
STARTCHAR dieresis
ENCODING 168
SWIDTH 333 0
DWIDTH 6 0
BBX 4 2 1 9
BITMAP
90
90
ENDCHAR
STARTCHAR Scaron
ENCODING 169
SWIDTH 556 0
DWIDTH 9 0
BBX 8 15 0 0
BITMAP
44
28
10
00
3A
46
82
80
60
1C
02
01
81
C2
BC
ENDCHAR
STARTCHAR Scedilla
ENCODING 170
SWIDTH 556 0
DWIDTH 9 0
BBX 8 15 0 -4
BITMAP
3A
46
82
80
60
1C
02
01
81
C2
BC
10
38
08
70
ENDCHAR
STARTCHAR Tcaron
ENCODING 171
SWIDTH 611 0
DWIDTH 10 0
BBX 9 15 0 0
BITMAP
2200
1400
0800
0000
FF80
8880
8880
0800
0800
0800
0800
0800
0800
0800
1C00
ENDCHAR
STARTCHAR Zacute
ENCODING 172
SWIDTH 611 0
DWIDTH 10 0
BBX 9 15 0 0
BITMAP
0400
0800
1000
0000
FF80
8100
8200
0400
0400
0800
1000
2000
2000
4080
FF00
ENDCHAR
STARTCHAR hyphen
ENCODING 173
SWIDTH 333 0
DWIDTH 5 0
BBX 4 1 0 4
BITMAP
F0
ENDCHAR
STARTCHAR Zcaron
ENCODING 174
SWIDTH 611 0
DWIDTH 10 0
BBX 9 15 0 0
BITMAP
2200
1400
0800
0000
FF80
8100
8200
0400
0400
0800
1000
2000
2000
4080
FF00
ENDCHAR
STARTCHAR Zdotaccent
ENCODING 175
SWIDTH 611 0
DWIDTH 10 0
BBX 9 14 0 0
BITMAP
0800
0800
0000
FF80
8100
8200
0400
0400
0800
1000
2000
2000
4080
FF00
ENDCHAR
STARTCHAR degree
ENCODING 176
SWIDTH 400 0
DWIDTH 7 0
BBX 5 5 1 6
BITMAP
70
88
88
88
70
ENDCHAR
STARTCHAR aogonek
ENCODING 177
SWIDTH 444 0
DWIDTH 7 0
BBX 7 11 1 -3
BITMAP
70
88
88
38
C8
88
9A
6C
04
08
0E
ENDCHAR
STARTCHAR ogonek
ENCODING 178
SWIDTH 531 0
DWIDTH 9 0
BBX 3 3 3 -3
BITMAP
40
80
E0
ENDCHAR
STARTCHAR lslash
ENCODING 179
SWIDTH 278 0
DWIDTH 5 0
BBX 3 11 1 0
BITMAP
40
C0
40
40
60
C0
40
40
40
40
E0
ENDCHAR
STARTCHAR acute
ENCODING 180
SWIDTH 333 0
DWIDTH 6 0
BBX 3 3 2 8
BITMAP
20
40
80
ENDCHAR
STARTCHAR lcaron
ENCODING 181
SWIDTH 278 0
DWIDTH 5 0
BBX 5 11 1 0
BITMAP
48
C8
50
40
40
40
40
40
40
40
E0
ENDCHAR
STARTCHAR sacute
ENCODING 182
SWIDTH 389 0
DWIDTH 6 0
BBX 5 12 0 0
BITMAP
08
10
20
00
78
88
80
70
08
88
C8
B0
ENDCHAR
STARTCHAR caron
ENCODING 183
SWIDTH 531 0
DWIDTH 9 0
BBX 5 3 2 8
BITMAP
88
50
20
ENDCHAR
STARTCHAR cedilla
ENCODING 184
SWIDTH 590 0
DWIDTH 10 0
BBX 4 4 3 -4
BITMAP
20
70
10
E0
ENDCHAR
STARTCHAR scaron
ENCODING 185
SWIDTH 389 0
DWIDTH 6 0
BBX 5 12 0 0
BITMAP
88
50
20
00
78
88
80
70
08
88
C8
B0
ENDCHAR
STARTCHAR scedilla
ENCODING 186
SWIDTH 389 0
DWIDTH 6 0
BBX 5 12 0 -4
BITMAP
78
88
80
70
08
88
C8
B0
20
70
10
E0
ENDCHAR
STARTCHAR tcaron
ENCODING 187
SWIDTH 222 0
DWIDTH 4 0
BBX 4 11 0 0
BITMAP
10
50
60
F0
40
40
40
40
40
50
20
ENDCHAR
STARTCHAR zacute
ENCODING 188
SWIDTH 444 0
DWIDTH 7 0
BBX 6 12 0 0
BITMAP
08
10
20
00
FC
84
08
10
20
40
84
FC
ENDCHAR
STARTCHAR hungarumlaut
ENCODING 189
SWIDTH 531 0
DWIDTH 9 0
BBX 5 4 2 8
BITMAP
28
78
50
A0
ENDCHAR
STARTCHAR zcaron
ENCODING 190
SWIDTH 444 0
DWIDTH 7 0
BBX 6 12 0 0
BITMAP
44
28
10
00
FC
84
08
10
20
40
84
FC
ENDCHAR
STARTCHAR zdotaccent
ENCODING 191
SWIDTH 444 0
DWIDTH 7 0
BBX 6 11 0 0
BITMAP
10
10
00
FC
84
08
10
20
40
84
FC
ENDCHAR
STARTCHAR Racute
ENCODING 192
SWIDTH 667 0
DWIDTH 11 0
BBX 10 15 0 0
BITMAP
0400
0800
1000
0000
FC00
4200
4100
4100
4200
7C00
4800
4400
4200
4100
E1C0
ENDCHAR
STARTCHAR Aacute
ENCODING 193
SWIDTH 722 0
DWIDTH 12 0
BBX 12 15 0 0
BITMAP
0100
0200
0400
0000
0400
0600
0A00
0B00
1100
1180
2080
3F80
40C0
4040
E0F0
ENDCHAR
STARTCHAR Acircumflex
ENCODING 194
SWIDTH 722 0
DWIDTH 12 0
BBX 12 15 0 0
BITMAP
0400
0A00
1100
0000
0400
0600
0A00
0B00
1100
1180
2080
3F80
40C0
4040
E0F0
ENDCHAR
STARTCHAR Abreve
ENCODING 195
SWIDTH 722 0
DWIDTH 12 0
BBX 12 15 0 0
BITMAP
1100
1100
0E00
0000
0400
0600
0A00
0B00
1100
1180
2080
3F80
40C0
4040
E0F0
ENDCHAR
STARTCHAR Adieresis
ENCODING 196
SWIDTH 722 0
DWIDTH 12 0
BBX 12 14 0 0
BITMAP
0900
0900
0000
0400
0600
0A00
0B00
1100
1180
2080
3F80
40C0
4040
E0F0
ENDCHAR
STARTCHAR Lacute
ENCODING 197
SWIDTH 611 0
DWIDTH 10 0
BBX 8 15 0 0
BITMAP
08
10
20
00
E0
40
40
40
40
40
40
40
40
41
FE
ENDCHAR
STARTCHAR Cacute
ENCODING 198
SWIDTH 667 0
DWIDTH 11 0
BBX 10 15 0 0
BITMAP
0200
0400
0800
0000
1F40
60C0
4040
8040
8000
8000
8000
8000
4040
6180
1E00
ENDCHAR
STARTCHAR Ccedilla
ENCODING 199
SWIDTH 667 0
DWIDTH 11 0
BBX 10 15 0 -4
BITMAP
0F40
30C0
4040
8040
8000
8000
8000
8000
4040
3180
0E00
0400
0E00
0200
1C00
ENDCHAR
STARTCHAR Ccaron
ENCODING 200
SWIDTH 667 0
DWIDTH 11 0
BBX 10 15 0 0
BITMAP
1100
0A00
0400
0000
1F40
60C0
4040
8040
8000
8000
8000
8000
4040
6180
1E00
ENDCHAR
STARTCHAR Eacute
ENCODING 201
SWIDTH 611 0
DWIDTH 10 0
BBX 9 15 0 0
BITMAP
0200
0400
0800
0000
FF00
4100
4100
4000
4200
7E00
4200
4000
4000
4080
FF00
ENDCHAR
STARTCHAR Eogonek
ENCODING 202
SWIDTH 611 0
DWIDTH 10 0
BBX 9 14 0 -3
BITMAP
FF00
4100
4000
4000
4200
7E00
4200
4000
4000
4080
FF00
0100
0200
0380
ENDCHAR
STARTCHAR Edieresis
ENCODING 203
SWIDTH 611 0
DWIDTH 10 0
BBX 9 14 0 0
BITMAP
2400
2400
0000
FF00
4100
4000
4000
4200
7E00
4200
4000
4000
4080
FF00
ENDCHAR
STARTCHAR Ecaron
ENCODING 204
SWIDTH 611 0
DWIDTH 10 0
BBX 9 15 0 0
BITMAP
2200
1400
0800
0000
FF00
4100
4000
4000
4200
7E00
4200
4000
4000
4080
FF00
ENDCHAR
STARTCHAR Iacute
ENCODING 205
SWIDTH 333 0
DWIDTH 5 0
BBX 5 15 0 0
BITMAP
08
10
20
00
E0
40
40
40
40
40
40
40
40
40
E0
ENDCHAR
STARTCHAR Icircumflex
ENCODING 206
SWIDTH 333 0
DWIDTH 5 0
BBX 5 15 -1 0
BITMAP
20
50
88
00
70
20
20
20
20
20
20
20
20
20
70
ENDCHAR
STARTCHAR Dcaron
ENCODING 207
SWIDTH 722 0
DWIDTH 12 0
BBX 10 15 0 0
BITMAP
2200
1400
0800
0000
FC00
4300
4080
4040
4040
4040
4040
4040
4080
4300
FC00
ENDCHAR
STARTCHAR Eth
ENCODING 208
SWIDTH 722 0
DWIDTH 12 0
BBX 10 11 1 0
BITMAP
FC00
4300
4080
4040
4040
F840
4040
4040
4080
4300
FC00
ENDCHAR
STARTCHAR Nacute
ENCODING 209
SWIDTH 722 0
DWIDTH 12 0
BBX 10 15 0 0
BITMAP
0200
0400
0800
0000
E1C0
6080
5080
5080
4880
4880
4480
4280
4280
4180
F080
ENDCHAR
STARTCHAR Ncaron
ENCODING 210
SWIDTH 722 0
DWIDTH 12 0
BBX 10 15 0 0
BITMAP
1100
0A00
0400
0000
E1C0
6080
5080
5080
4880
4880
4480
4280
4280
4180
F080
ENDCHAR
STARTCHAR Oacute
ENCODING 211
SWIDTH 722 0
DWIDTH 12 0
BBX 9 15 1 0
BITMAP
0200
0400
0800
0000
1C00
6300
4100
8080
8080
8080
8080
8080
4100
6300
1C00
ENDCHAR
STARTCHAR Ocircumflex
ENCODING 212
SWIDTH 722 0
DWIDTH 12 0
BBX 9 15 1 0
BITMAP
0800
1400
2200
0000
1C00
6300
4100
8080
8080
8080
8080
8080
4100
6300
1C00
ENDCHAR
STARTCHAR Ohungarumlaut
ENCODING 213
SWIDTH 722 0
DWIDTH 12 0
BBX 9 15 1 0
BITMAP
0900
1200
1200
0000
1C00
6300
4100
8080
8080
8080
8080
8080
4100
6300
1C00
ENDCHAR
STARTCHAR Odieresis
ENCODING 214
SWIDTH 722 0
DWIDTH 12 0
BBX 9 14 1 0
BITMAP
2200
2200
0000
1C00
6300
4100
8080
8080
8080
8080
8080
4100
6300
1C00
ENDCHAR
STARTCHAR multiply
ENCODING 215
SWIDTH 564 0
DWIDTH 9 0
BBX 7 7 1 0
BITMAP
82
44
28
10
28
44
82
ENDCHAR
STARTCHAR Rcaron
ENCODING 216
SWIDTH 667 0
DWIDTH 11 0
BBX 10 15 0 0
BITMAP
2200
1400
0800
0000
FC00
4200
4100
4100
4200
7C00
4800
4400
4200
4100
E1C0
ENDCHAR
STARTCHAR Uring
ENCODING 217
SWIDTH 722 0
DWIDTH 12 0
BBX 10 14 0 0
BITMAP
0400
0A00
0A00
E5C0
4080
4080
4080
4080
4080
4080
4080
4080
2100
1E00
ENDCHAR
STARTCHAR Uacute
ENCODING 218
SWIDTH 722 0
DWIDTH 12 0
BBX 10 15 0 0
BITMAP
0100
0200
0400
0000
E1C0
4080
4080
4080
4080
4080
4080
4080
4080
2100
1E00
ENDCHAR
STARTCHAR Uhungarumlaut
ENCODING 219
SWIDTH 722 0
DWIDTH 12 0
BBX 10 15 0 0
BITMAP
0900
1200
1200
0000
E1C0
4080
4080
4080
4080
4080
4080
4080
4080
2100
1E00
ENDCHAR
STARTCHAR Udieresis
ENCODING 220
SWIDTH 722 0
DWIDTH 12 0
BBX 10 14 0 0
BITMAP
1200
1200
0000
E1C0
4080
4080
4080
4080
4080
4080
4080
4080
2100
1E00
ENDCHAR
STARTCHAR Yacute
ENCODING 221
SWIDTH 722 0
DWIDTH 12 0
BBX 11 15 0 0
BITMAP
0080
0100
0200
0000
E0E0
4040
2080
1100
1100
0A00
0400
0400
0400
0400
0E00
ENDCHAR
STARTCHAR Tcedilla
ENCODING 222
SWIDTH 611 0
DWIDTH 10 0
BBX 9 15 0 -4
BITMAP
FF80
8880
8880
0800
0800
0800
0800
0800
0800
0800
1C00
0800
1C00
0400
3800
ENDCHAR
STARTCHAR germandbls
ENCODING 223
SWIDTH 500 0
DWIDTH 8 0
BBX 7 11 0 0
BITMAP
38
44
44
44
48
58
44
42
42
52
CC
ENDCHAR
STARTCHAR racute
ENCODING 224
SWIDTH 333 0
DWIDTH 6 0
BBX 6 12 0 0
BITMAP
04
08
10
00
58
E8
40
40
40
40
40
E0
ENDCHAR
STARTCHAR aacute
ENCODING 225
SWIDTH 444 0
DWIDTH 7 0
BBX 7 12 1 0
BITMAP
08
10
20
00
70
88
88
38
C8
88
9A
64
ENDCHAR
STARTCHAR acircumflex
ENCODING 226
SWIDTH 444 0
DWIDTH 7 0
BBX 7 12 1 0
BITMAP
20
50
88
00
70
88
88
38
C8
88
9A
64
ENDCHAR
STARTCHAR abreve
ENCODING 227
SWIDTH 444 0
DWIDTH 7 0
BBX 7 12 1 0
BITMAP
88
88
70
00
70
88
88
38
C8
88
9A
6C
ENDCHAR
STARTCHAR adieresis
ENCODING 228
SWIDTH 444 0
DWIDTH 7 0
BBX 7 11 1 0
BITMAP
48
48
00
70
88
88
38
C8
88
9A
64
ENDCHAR
STARTCHAR lacute
ENCODING 229
SWIDTH 278 0
DWIDTH 5 0
BBX 4 15 1 0
BITMAP
10
20
40
00
40
C0
40
40
40
40
40
40
40
40
E0
ENDCHAR
STARTCHAR cacute
ENCODING 230
SWIDTH 444 0
DWIDTH 7 0
BBX 6 12 0 0
BITMAP
04
08
10
00
38
44
84
80
80
80
44
38
ENDCHAR
STARTCHAR ccedilla
ENCODING 231
SWIDTH 444 0
DWIDTH 7 0
BBX 6 12 0 -4
BITMAP
38
44
84
80
80
80
44
38
10
38
08
70
ENDCHAR
STARTCHAR ccaron
ENCODING 232
SWIDTH 444 0
DWIDTH 7 0
BBX 6 12 0 0
BITMAP
44
28
10
00
38
44
84
80
80
80
44
38
ENDCHAR
STARTCHAR eacute
ENCODING 233
SWIDTH 444 0
DWIDTH 7 0
BBX 6 12 0 0
BITMAP
04
08
10
00
38
44
84
FC
80
80
44
38
ENDCHAR
STARTCHAR eogonek
ENCODING 234
SWIDTH 444 0
DWIDTH 7 0
BBX 6 11 0 -3
BITMAP
38
44
84
FC
80
80
44
38
10
20
38
ENDCHAR
STARTCHAR edieresis
ENCODING 235
SWIDTH 444 0
DWIDTH 7 0
BBX 6 11 0 0
BITMAP
48
48
00
38
44
84
FC
80
80
44
38
ENDCHAR
STARTCHAR ecaron
ENCODING 236
SWIDTH 444 0
DWIDTH 7 0
BBX 6 12 0 0
BITMAP
44
28
10
00
38
44
84
FC
80
80
44
38
ENDCHAR
STARTCHAR iacute
ENCODING 237
SWIDTH 278 0
DWIDTH 5 0
BBX 3 12 0 0
BITMAP
20
40
80
00
40
C0
40
40
40
40
40
E0
ENDCHAR
STARTCHAR icircumflex
ENCODING 238
SWIDTH 278 0
DWIDTH 5 0
BBX 5 12 -1 0
BITMAP
20
50
88
00
20
60
20
20
20
20
20
70
ENDCHAR
STARTCHAR dcaron
ENCODING 239
SWIDTH 437 0
DWIDTH 7 0
BBX 8 11 0 0
BITMAP
05
0D
06
34
4C
84
84
84
84
4E
34
ENDCHAR
STARTCHAR dmacron
ENCODING 240
SWIDTH 500 0
DWIDTH 8 0
BBX 7 11 0 0
BITMAP
04
3E
04
34
4C
84
84
84
84
4E
34
ENDCHAR
STARTCHAR nacute
ENCODING 241
SWIDTH 500 0
DWIDTH 8 0
BBX 8 12 0 0
BITMAP
04
08
10
00
5C
E6
42
42
42
42
42
E7
ENDCHAR
STARTCHAR ncaron
ENCODING 242
SWIDTH 500 0
DWIDTH 8 0
BBX 8 12 0 0
BITMAP
22
14
08
00
5C
E6
42
42
42
42
42
E7
ENDCHAR
STARTCHAR oacute
ENCODING 243
SWIDTH 500 0
DWIDTH 8 0
BBX 7 12 0 0
BITMAP
04
08
10
00
38
44
82
82
82
82
44
38
ENDCHAR
STARTCHAR ocircumflex
ENCODING 244
SWIDTH 500 0
DWIDTH 8 0
BBX 7 12 0 0
BITMAP
10
28
44
00
38
44
82
82
82
82
44
38
ENDCHAR
STARTCHAR ohungarumlaut
ENCODING 245
SWIDTH 500 0
DWIDTH 8 0
BBX 7 12 0 0
BITMAP
12
24
24
00
38
44
82
82
82
82
44
38
ENDCHAR
STARTCHAR odieresis
ENCODING 246
SWIDTH 500 0
DWIDTH 8 0
BBX 7 11 0 0
BITMAP
48
48
00
38
44
82
82
82
82
44
38
ENDCHAR
STARTCHAR divide
ENCODING 247
SWIDTH 564 0
DWIDTH 9 0
BBX 9 9 -1 0
BITMAP
0800
0800
0000
0000
FF80
0000
0000
0800
0800
ENDCHAR
STARTCHAR rcaron
ENCODING 248
SWIDTH 333 0
DWIDTH 6 0
BBX 6 12 0 0
BITMAP
44
28
10
00
58
E8
40
40
40
40
40
E0
ENDCHAR
STARTCHAR uring
ENCODING 249
SWIDTH 500 0
DWIDTH 8 0
BBX 8 12 0 0
BITMAP
10
28
28
10
C6
42
42
42
42
42
47
3A
ENDCHAR
STARTCHAR uacute
ENCODING 250
SWIDTH 500 0
DWIDTH 8 0
BBX 8 12 -1 0
BITMAP
04
08
10
00
C6
42
42
42
42
42
46
3B
ENDCHAR
STARTCHAR uhungarumlaut
ENCODING 251
SWIDTH 500 0
DWIDTH 8 0
BBX 8 12 0 0
BITMAP
12
24
24
00
C6
42
42
42
42
42
47
3A
ENDCHAR
STARTCHAR udieresis
ENCODING 252
SWIDTH 500 0
DWIDTH 8 0
BBX 8 11 -1 0
BITMAP
24
24
00
C6
42
42
42
42
42
46
3B
ENDCHAR
STARTCHAR yacute
ENCODING 253
SWIDTH 500 0
DWIDTH 8 0
BBX 8 16 -1 -4
BITMAP
02
04
08
00
F7
42
42
24
24
14
08
08
10
10
A0
C0
ENDCHAR
STARTCHAR tcedilla
ENCODING 254
SWIDTH 278 0
DWIDTH 5 0
BBX 4 14 0 -4
BITMAP
40
40
F0
40
40
40
40
40
50
20
20
70
10
E0
ENDCHAR
STARTCHAR dotaccent
ENCODING 255
SWIDTH 413 0
DWIDTH 7 0
BBX 1 2 3 9
BITMAP
80
80
ENDCHAR
ENDFONT
